<svg width="50" height="42" viewBox="0 0 50 42" fill="none" xmlns="http://www.w3.org/2000/svg">
<path d="M49.6573 12.32C49.0302 10.907 47.6569 9.9915 46.1645 9.9915L45.9875 9.99609L44.9773 10.0495C42.7099 6.89707 39.5315 4.46787 35.7031 2.97549C33.2007 1.9959 30.4099 1.41299 27.4084 1.24512C26.7843 1.21152 26.1495 1.19326 25.5147 1.19326C25.0585 1.19326 24.5931 1.20244 24.1201 1.21924C22.7239 1.27266 21.3445 1.45273 20.0186 1.75478C19.8064 1.80361 19.5913 1.85547 19.3776 1.91045C16.7211 0.350977 14.1256 0 12.3266 0C12.177 0 12.032 0.00302732 11.8932 0.00615232C11.5254 0.0183593 11.2568 0.0321289 11.0539 0.0549804C10.6449 0.0977539 10.2879 0.207617 9.98427 0.366309C9.35869 0.631836 8.82002 1.0835 8.44316 1.67246C7.88926 2.55137 7.75957 3.6042 8.07539 4.57168L9.25791 8.19561C9.02295 8.48096 8.80166 8.7709 8.59258 9.06074C7.65107 10.3853 6.99502 11.606 6.41816 12.6832C5.63847 14.1389 5.13183 15.0422 4.57187 15.265L4.52304 15.2834L4.38115 15.3384L4.06679 15.4574C2.67363 15.9793 -0.587112 17.203 0.0918915 20.5936L0.239938 21.3443C0.818259 24.2832 1.20273 26.1356 1.45908 26.9107L1.60859 27.367C2.12744 28.9463 2.45088 29.7489 4.11718 30.8231C4.84961 31.2932 5.74072 31.4609 6.68369 31.635C6.96445 31.6868 7.37343 31.7632 7.558 31.815C7.73652 31.9035 7.92578 31.9737 8.12255 32.018C8.78476 32.1721 9.32187 32.2499 9.75527 32.3125C10.036 32.3521 10.384 32.4041 10.4785 32.4437C10.5258 32.4773 10.8829 32.7687 11.8197 34.4609L11.8686 34.5434C12.4423 35.4895 13.0603 37.0244 13.2647 37.5295C13.373 37.7965 13.4692 38.0422 13.5531 38.2513C13.7408 38.7273 13.8263 38.9471 13.9209 39.1363C14.7327 40.7538 16.1776 41.5655 18.2208 41.5655H21.0879C22.9296 41.5655 24.7882 40.1983 24.7882 37.1466V36.5728V36.1364H29.8557V36.5728V37.1466C29.8557 40.1983 31.6791 41.5655 33.4857 41.5655H36.1759C38.1916 41.5655 39.6045 40.7324 40.3735 39.0921C40.4682 38.8892 40.5551 38.6557 40.7428 38.1476C40.8038 37.9843 40.8725 37.7996 40.9457 37.6013C42.1374 35.2453 43.2863 33.4143 44.5574 31.8487C47.1895 28.7542 48.5811 24.9548 48.5811 20.864C48.5811 19.7669 48.4683 18.6438 48.2439 17.5177C48.4179 17.3025 48.6193 17.063 48.8527 16.8051C50.0099 15.5213 50.3181 13.8062 49.6573 12.32ZM46.9581 15.091C46.1982 15.9272 45.713 16.6169 45.4902 16.9526C45.8518 18.2954 46.0273 19.6199 46.0273 20.8635C46.0273 24.6187 44.6846 27.765 42.5926 30.2156C40.9187 32.2756 39.6446 34.5033 38.604 36.5725C38.337 37.2805 38.1386 37.8359 38.0607 38.0068C37.7922 38.5806 37.3878 39.0108 36.1763 39.0108C34.9662 39.0108 34.2934 39.0108 33.4861 39.0108C32.6805 39.0108 32.4119 38.1502 32.4119 37.1462C32.4119 36.9905 32.4119 36.7952 32.4119 36.5725V33.5802H22.2328V36.5725C22.2328 36.7952 22.2328 36.9905 22.2328 37.1462C22.2328 38.1502 21.9459 39.0108 21.0884 39.0108C20.2277 39.0108 19.5091 39.0108 18.2213 39.0108C16.9289 39.0108 16.5001 38.5806 16.2132 38.0068C16.1293 37.8359 15.9202 37.2805 15.6349 36.5725C15.2214 35.5471 14.6461 34.1951 14.0556 33.2186C11.8888 29.3123 11.4631 30.1668 8.69668 29.529L8.69511 29.526C8.07861 29.172 6.09804 29.0591 5.50146 28.6745C4.4166 27.9757 4.46084 27.8292 3.88554 26.108C3.58193 25.1925 2.84951 21.3533 2.59765 20.0899C2.32295 18.7212 3.88242 18.2649 5.31679 17.7156L5.51367 17.6394C7.79795 16.733 8.33047 13.8368 10.6742 10.544C11.0938 9.95654 11.5897 9.37217 12.1482 8.81065L10.5049 3.78135C10.4255 3.53721 10.4576 3.26865 10.5965 3.04893C10.7369 2.8292 10.9657 2.68271 11.2252 2.65215C11.2252 2.65215 10.8682 2.59414 11.9728 2.56055C12.0873 2.55752 12.2048 2.55596 12.3269 2.55596C14.0282 2.55596 16.5169 2.93594 18.969 4.6876C19.4879 4.52275 20.0265 4.37324 20.585 4.24512C21.7264 3.98574 22.9349 3.8209 24.2166 3.77207C24.6561 3.75527 25.0894 3.74766 25.5151 3.74766C26.1117 3.74766 26.6946 3.76289 27.2638 3.79346C30.1264 3.9583 32.6211 4.51367 34.7741 5.35596C38.952 6.98252 41.8465 9.68643 43.6531 12.6741C44.9943 12.6069 45.1958 12.5963 46.1129 12.549H46.1647C47.1458 12.5489 48.0277 13.9054 46.9581 15.091Z" fill="#6E738D"/>
<path d="M12.252 17.6881C11.1992 17.6881 10.3462 18.5395 10.3462 19.5939C10.3462 20.6453 11.1991 21.4998 12.252 21.4998C13.305 21.4998 14.1579 20.6453 14.1579 19.5939C14.1578 18.5394 13.3049 17.6881 12.252 17.6881Z" fill="#6E738D"/>
<path d="M24.311 6.1875L24.1798 8.56025C24.3873 8.56641 24.6238 8.57861 24.9152 8.59385C27.0759 8.70986 30.387 8.89902 34.4993 10.0343L34.6336 7.58369C30.3687 6.50029 27.2331 6.34463 25.0449 6.22256C24.7657 6.20732 24.5216 6.19814 24.311 6.1875Z" fill="#6E738D"/>
</svg>

