<svg width="50" height="42" viewBox="0 0 50 42" fill="none" xmlns="http://www.w3.org/2000/svg">
<path d="M49.657 12.5375C49.0299 11.1245 47.6566 10.209 46.1642 10.209L45.9872 10.2136L44.977 10.267C42.7096 7.11455 39.5312 4.68535 35.7028 3.19297C33.2004 2.21338 30.4096 1.63047 27.4081 1.4626C26.784 1.42901 26.1492 1.41075 25.5144 1.41075C25.0582 1.41075 24.5928 1.41992 24.1198 1.43672C22.7236 1.49014 21.3442 1.67022 20.0182 1.97227C19.8061 2.0211 19.591 2.07295 19.3773 2.12793C16.7208 0.56846 14.1253 0.217484 12.3263 0.217484C12.1767 0.217484 12.0317 0.220511 11.8929 0.223636C11.5251 0.235843 11.2565 0.249612 11.0536 0.272464C10.6446 0.315237 10.2876 0.425101 9.98397 0.583792C9.35838 0.849319 8.81971 1.30098 8.44286 1.88994C7.88895 2.76885 7.75926 3.82168 8.07508 4.78916L9.2576 8.41309C9.02264 8.69844 8.80135 8.98838 8.59227 9.27823C7.65077 10.6027 6.99471 11.8234 6.41786 12.9007C5.63817 14.3564 5.13153 15.2597 4.57157 15.4825L4.52274 15.5009L4.38084 15.5559L4.06649 15.6749C2.67332 16.1968 -0.587418 17.4205 0.0915863 20.811L0.239633 21.5618C0.817953 24.5007 1.20243 26.3531 1.45877 27.1282L1.60829 27.5845C2.12713 29.1638 2.45057 29.9664 4.11688 31.0406C4.8493 31.5106 5.74041 31.6784 6.68338 31.8524C6.96415 31.9043 7.37313 31.9807 7.5577 32.0325C7.73622 32.121 7.92547 32.1912 8.12225 32.2355C8.78446 32.3896 9.32157 32.4674 9.75497 32.53C10.0357 32.5696 10.3837 32.6216 10.4782 32.6612C10.5255 32.6948 10.8826 32.9862 11.8194 34.6784L11.8682 34.7608C12.442 35.7069 13.0599 37.2419 13.2644 37.747C13.3727 38.014 13.4689 38.2597 13.5528 38.4688C13.7405 38.9448 13.826 39.1646 13.9206 39.3538C14.7324 40.9713 16.1773 41.783 18.2205 41.783H21.0876C22.9293 41.783 24.7879 40.4158 24.7879 37.3641V36.7903V36.3539H29.8554V36.7903V37.3641C29.8554 40.4158 31.6788 41.783 33.4854 41.783H36.1756C38.1913 41.783 39.6042 40.9499 40.3732 39.3096C40.4679 39.1066 40.5548 38.8731 40.7425 38.365C40.8035 38.2018 40.8722 38.0171 40.9454 37.8188C42.1371 35.4628 43.286 33.6317 44.5571 32.0662C47.1892 28.9717 48.5808 25.1723 48.5808 21.0815C48.5808 19.9844 48.468 18.8613 48.2436 17.7352C48.4176 17.52 48.619 17.2805 48.8524 17.0226C50.0096 15.7388 50.3178 14.0237 49.657 12.5375ZM46.9578 15.3085C46.1979 16.1447 45.7127 16.8344 45.4899 17.1701C45.8515 18.5129 46.027 19.8374 46.027 21.081C46.027 24.8361 44.6843 27.9825 42.5923 30.4331C40.9184 32.4931 39.6443 34.7208 38.6037 36.7899C38.3367 37.498 38.1383 38.0534 38.0604 38.2243C37.7919 38.7981 37.3875 39.2283 36.176 39.2283C34.9659 39.2283 34.293 39.2283 33.4858 39.2283C32.6802 39.2283 32.4116 38.3677 32.4116 37.3637C32.4116 37.208 32.4116 37.0127 32.4116 36.7899V33.7977H22.2325V36.7899C22.2325 37.0127 22.2325 37.208 22.2325 37.3637C22.2325 38.3677 21.9456 39.2283 21.0881 39.2283C20.2274 39.2283 19.5088 39.2283 18.221 39.2283C16.9286 39.2283 16.4998 38.7981 16.2129 38.2243C16.129 38.0534 15.9199 37.498 15.6346 36.7899C15.2211 35.7646 14.6458 34.4126 14.0553 33.436C11.8885 29.5298 11.4628 30.3843 8.69637 29.7465L8.69481 29.7435C8.07831 29.3895 6.09774 29.2766 5.50116 28.892C4.41629 28.1932 4.46053 28.0467 3.88524 26.3255C3.58163 25.41 2.8492 21.5708 2.59735 20.3074C2.32264 18.9387 3.88211 18.4824 5.31649 17.9331L5.51336 17.8568C7.79764 16.9505 8.33016 14.0543 10.6739 10.7615C11.0935 10.174 11.5894 9.58965 12.1479 9.02813L10.5046 3.99883C10.4252 3.75469 10.4573 3.48614 10.5962 3.26641C10.7366 3.04668 10.9654 2.9002 11.2249 2.86963C11.2249 2.86963 10.8679 2.81162 11.9725 2.77803C12.087 2.775 12.2045 2.77344 12.3265 2.77344C14.0279 2.77344 16.5166 3.15342 18.9687 4.90508C19.4876 4.74024 20.0262 4.59073 20.5847 4.4626C21.7261 4.20323 22.9346 4.03838 24.2163 3.98955C24.6557 3.97276 25.0891 3.96514 25.5148 3.96514C26.1114 3.96514 26.6943 3.98037 27.2635 4.01094C30.1261 4.17578 32.6208 4.73116 34.7738 5.57344C38.9516 7.2 41.8462 9.90391 43.6528 12.8916C44.994 12.8244 45.1955 12.8138 46.1126 12.7665H46.1644C47.1455 12.7664 48.0274 14.1229 46.9578 15.3085Z" fill="#CAD3F5"/>
<path d="M12.2517 17.9056C11.1989 17.9056 10.3459 18.757 10.3459 19.8114C10.3459 20.8628 11.1988 21.7173 12.2517 21.7173C13.3047 21.7173 14.1576 20.8628 14.1576 19.8114C14.1575 18.7569 13.3046 17.9056 12.2517 17.9056Z" fill="#CAD3F5"/>
<path d="M24.3108 6.40498L24.1795 8.77774C24.387 8.78389 24.6235 8.7961 24.915 8.81133C27.0756 8.92735 30.3867 9.11651 34.499 10.2518L34.6333 7.80118C30.3685 6.71778 27.2328 6.56211 25.0446 6.44004C24.7654 6.42481 24.5213 6.41563 24.3108 6.40498Z" fill="#CAD3F5"/>
</svg>
